<?xml version="1.0" standalone="no"?>
<!DOCTYPE svg PUBLIC "-//W3C//DTD SVG 1.1//EN" "http://www.w3.org/Graphics/SVG/1.1/DTD/svg11.dtd" >
<svg xmlns="http://www.w3.org/2000/svg">
<metadata>
Created by FontForge 20120731 at Wed Mar  2 17:11:59 2016
 By Ads
</metadata>
<defs>
<font id="iconfont" horiz-adv-x="1024" >
  <font-face 
    font-family="iconfont"
    font-weight="500"
    font-stretch="normal"
    units-per-em="1024"
    panose-1="2 0 6 3 0 0 0 0 0 0"
    ascent="896"
    descent="-128"
    x-height="792"
    bbox="0 -128 1025.5 896"
    underline-thickness="50"
    underline-position="-100"
    unicode-range="U+0078-E626"
  />
<missing-glyph horiz-adv-x="374" 
d="M34 0v682h272v-682h-272zM68 34h204v614h-204v-614z" />
    <glyph glyph-name=".notdef" horiz-adv-x="374" 
d="M34 0v682h272v-682h-272zM68 34h204v614h-204v-614z" />
    <glyph glyph-name=".null" horiz-adv-x="0" 
 />
    <glyph glyph-name="nonmarkingreturn" horiz-adv-x="341" 
 />
    <glyph glyph-name="x" unicode="x" horiz-adv-x="1001" 
d="M281 543q-27 -1 -53 -1h-83q-18 0 -36.5 -6t-32.5 -18.5t-23 -32t-9 -45.5v-76h912v41q0 16 -0.5 30t-0.5 18q0 13 -5 29t-17 29.5t-31.5 22.5t-49.5 9h-133v-97h-438v97zM955 310v-52q0 -23 0.5 -52t0.5 -58t-10.5 -47.5t-26 -30t-33 -16t-31.5 -4.5q-14 -1 -29.5 -0.5
t-29.5 0.5h-32l-45 128h-439l-44 -128h-29h-34q-20 0 -45 1q-25 0 -41 9.5t-25.5 23t-13.5 29.5t-4 30v167h911zM163 247q-12 0 -21 -8.5t-9 -21.5t9 -21.5t21 -8.5q13 0 22 8.5t9 21.5t-9 21.5t-22 8.5zM316 123q-8 -26 -14 -48q-5 -19 -10.5 -37t-7.5 -25t-3 -15t1 -14.5
t9.5 -10.5t21.5 -4h37h67h81h80h64h36q23 0 34 12t2 38q-5 13 -9.5 30.5t-9.5 34.5q-5 19 -11 39h-368zM336 498v228q0 11 2.5 23t10 21.5t20.5 15.5t34 6h188q31 0 51.5 -14.5t20.5 -52.5v-227h-327z" />
    <glyph glyph-name="uniE600" unicode="&#xe600;" 
d="M686 26l-358 358l358 358h-72l-358 -358l358 -358h72z" />
    <glyph glyph-name="uniE601" unicode="&#xe601;" 
d="M621 383l-191 169l-24 -13l176 -156l-179 -154l24 -13l194 166h-1z" />
    <glyph glyph-name="uniE602" unicode="&#xe602;" 
d="M852 682l-44 46l-292 -296l-287 298l-46 -44l288 -299l-299 -303l44 -46l299 303l280 -292l46 45l-281 292z" />
    <glyph glyph-name="uniE603" unicode="&#xe603;" 
d="M527 206q-3 -10 -6.5 -22t-7.5 -26h-1q-3 22 -13 48l-73 204h-105v-338h65v191q0 43 -2 86h2q7 -38 10 -46l85 -231h58l83 233q4 12 11 44h1q0 -11 -0.5 -21t-1 -19t-1 -17t-0.5 -15v-205h72v338h-102zM256 730h192v-64h-192v64zM256 602h192v-64h-192v64zM913 657
l-176 176q-21 21 -50 21h-537q-20 0 -34 -14t-14 -34v-850q0 -20 14 -34t34 -14h735q20 0 34 14t14 34v651q0 30 -20 50zM821 652h-82v85zM166 -28v818h509v-154q0 -20 14 -34t34 -14h146v-616h-703z" />
    <glyph glyph-name="uniE604" unicode="&#xe604;" 
d="M413 331h198l152 127l35 196l-100 171l-186 68l-186 -68l-100 -171l35 -196zM369 773l143 52l143 -52l76 -131l-27 -150l-116 -97h-152l-116 97l-27 150zM481 493h50v261h-41q-8 -24 -31 -41.5t-42 -24.5v-45q37 12 64 38v-188zM268 33l-29 90l-100 -36l150 284l-56 30
l-228 -429l194 69l55 -168l222 406l-56 31zM795 401l-56 -30l150 -284l-100 36l-29 -90l-152 277l-56 -31l222 -406l55 168l194 -69z" />
    <glyph glyph-name="uniE605" unicode="&#xe605;" 
d="M644 349q41 24 71.5 59.5t47.5 81t17 94.5q0 55 -21.5 105.5t-58 87t-87 58t-105.5 21.5q-74 0 -136.5 -36.5t-99 -99t-36.5 -136.5q0 -75 37.5 -137.5t100.5 -98.5q-132 -46 -218 -165t-92 -271h64q3 65 24 125.5t56.5 109t82 84.5t103 56t117.5 20q101 0 187.5 -52.5
t138.5 -143.5t57 -199h64q-4 101 -45.5 190.5t-111 153.5t-157.5 93zM508 376q-56 0 -104 28t-76 76t-28 104q0 86 61 147t147 61q42 0 80.5 -16.5t66.5 -44.5t44.5 -66.5t16.5 -80.5q0 -95 -72 -157q-59 -51 -136 -51z" />
    <glyph glyph-name="uniE606" unicode="&#xe606;" 
d="M440 -56h-51v507l-312 358h870l-276 -358v-308h-51v328l220 287h-645l240 -287z" />
    <glyph glyph-name="uniE607" unicode="&#xe607;" 
d="M179 748h671v-77h-671v77zM512 640l-323 -297l52 -56l235 215v-492h72v492l230 -215l51 56z" />
    <glyph glyph-name="uniE608" unicode="&#xe608;" 
d="M672 736q-17 32 7.5 48t49.5 1q-1 -20 -12.5 -26.5t-26 -9.5t-18.5 -13zM611 733q8 18 27.5 20t27.5 -23q-7 4 -17.5 0t-17.5 -6t-20 9zM629 498q-5 0 -10 3t-8 8t-3 11q0 4 2 8t4.5 6.5t6.5 4.5t8.5 2t8.5 -2t6.5 -4.5t4.5 -6.5t2 -8v-6q18 0 36 11t37.5 26t45.5 30
t69.5 23.5t100.5 5.5q-25 41 -59 69t-69.5 39.5t-73 11t-70 -12.5t-59.5 -34t-43 -52q-9 -18 -25.5 -50t-26 -50.5t-25 -44t-29 -39.5t-31 -28t-38.5 -19.5t-45 -3.5q17 0 42.5 9t30.5 18q-23 22 -33.5 43t-9.5 39t7 38t15.5 40t15.5 45t8 52t-6 62q-12 -15 -28 -29
t-29.5 -23.5t-28 -19.5t-24 -20.5t-16 -24t-6 -31.5t7.5 -41q-19 20 -37.5 30.5t-39.5 9.5t-34 -4t-37 -11q-57 -20 -87 -13q16 -33 41.5 -48.5t52.5 -19t54 -8.5t51.5 -27.5t38.5 -65.5q34 -131 101.5 -207.5t154.5 -102.5q-13 29 -19 49t-8 46.5t5 57t22 70.5
q-19 -63 -15 -103q0 -24 4 -44t11 -37q5 -15 21 -39q32 -53 28 -102q0 -5 -1 -10q31 18 52 47t29.5 64t11.5 69.5t-1.5 74t-9.5 67.5t-12 58q20 -57 30 -127t0 -132q1 0 2.5 0.5t3.5 1.5t3 1q33 13 65 40t55 59q-2 5 -6.5 12.5t-12 31.5t-8.5 47q3 -13 5.5 -22.5t6.5 -20.5
q6 -18 15 -36l9 -18q4 -8 8.5 -19.5t8 -21.5t6.5 -23t4 -26q36 34 53 70t16 71t-8 64t-18.5 66.5t-15.5 59.5q0 3 1.5 7.5t1.5 7.5q24 102 67 145q-64 3 -111.5 -5.5t-73 -23t-45 -29t-39.5 -23.5t-44 -7q-2 1 -3 1t-3.5 -1t-4 -2.5t-4 -2.5t-4.5 -1z" />
    <glyph glyph-name="uniE609" unicode="&#xe609;" 
d="M896 241v415h-736v-415h352v-97h-64v-32h159v32h-63v97h352zM192 305v320h671v-320h-671z" />
    <glyph glyph-name="uniE60A" unicode="&#xe60a;" 
d="M791 524l-279 -280l-279 280h558z" />
    <glyph glyph-name="uniE60B" unicode="&#xe60b;" 
d="M913 672h-412h-3l-1 1l-109 121q-5 5 -11 9t-12.5 7t-13.5 4.5t-14 1.5h-226q-20 0 -34 -14t-14 -34v-768q0 -20 14 -34t34 -14h802q20 0 34 14t14 34v624q0 20 -14 34t-34 14zM238 16l153 166l146 -166h-299zM591 16l116 106l86 -106h-202zM897 16h-21l-163 198
l-147 -134l-174 197l-241 -261h-24v736h209h2l2 -1l110 -121q9 -10 23 -16t27 -6h397v-592zM704 288q53 0 90.5 37.5t37.5 90.5t-37.5 90.5t-90.5 37.5t-90.5 -37.5t-37.5 -90.5t37.5 -90.5t90.5 -37.5zM704 480q26 0 45 -19t19 -45t-19 -45t-45 -19t-45 19t-19 45t19 45
t45 19zM576 816h320v-64h-320v64z" />
    <glyph glyph-name="uniE60C" unicode="&#xe60c;" 
d="M512 166q29 0 62.5 8.5t65.5 22t63 31t57.5 35.5t47.5 35.5t34 31.5t16 22q-3 17 -35.5 51t-79.5 68.5t-111 60t-120 25.5q-73 0 -156 -35t-136.5 -83.5t-53.5 -86.5q3 -15 36 -45.5t81 -62t111.5 -55t117.5 -23.5zM512 128q-75 0 -168 41.5t-154.5 94.5t-61.5 88
q0 55 62.5 113t152.5 94t169 36q61 0 132 -28t125 -67t90.5 -80.5t36.5 -67.5q0 -21 -39 -59t-95 -74.5t-126 -63.5t-124 -27v0zM512 128zM512 269q45 0 75 34t21 81q-5 28 -26 46.5t-51 23.5q-47 10 -81 -18.5t-34 -77.5q0 -50 46 -76q24 -13 50 -13zM512 224
q-62 0 -103 49t-31 111q9 39 36.5 69t65.5 40q66 14 116 -25.5t50 -102.5q0 -58 -38.5 -99.5t-95.5 -41.5v0zM512 224z" />
    <glyph glyph-name="uniE60D" unicode="&#xe60d;" 
d="M734 36l-222 116l-222 -116l45 246l-181 177l249 34l109 226l109 -226l249 -34l-177 -174z" />
    <glyph glyph-name="uniE60E" unicode="&#xe60e;" 
d="M512 640q106 0 181 -75t75 -181t-75 -181t-181 -75t-181 75t-75 181t75 181t181 75zM512 672q-120 0 -204 -84t-84 -204t84 -204t204 -84t204 84t84 204t-84 204t-204 84zM493 538h32v-192h-32v192zM493 378h128v-32h-128v32z" />
    <glyph glyph-name="uniE60F" unicode="&#xe60f;" 
d="M615 357q47 25 76 70.5t29 100.5q0 39 -15 74.5t-41 61.5t-61.5 41t-74.5 15q-79 0 -135 -56t-56 -136q0 -55 28.5 -100.5t76.5 -70.5q-63 -16 -115.5 -55.5t-86.5 -94.5v-30v-43v-22h576v24v41v31q-23 37 -53.5 66.5t-68 50.5t-79.5 32zM369 528q0 66 47 113t113 47
t113 -47t47 -113t-46.5 -112.5t-112.5 -46.5h-1h-1q-43 0 -79.5 21.5t-58 58t-21.5 79.5zM259 177q40 72 111.5 116t157.5 44v0h1q86 0 157.5 -44t111.5 -116h-539z" />
    <glyph glyph-name="uniE610" unicode="&#xe610;" 
d="M395 734l-79 -80l264 -264l-264 -265l82 -82l344 344z" />
    <glyph glyph-name="uniE611" unicode="&#xe611;" 
d="M384 480h256v-32h-256v32zM320 640v-512h384v512h-384zM672 160h-320v448h32v-32h32v32h32v-32h32v32h64v-32h32v32h32v-32h32v32h32v-448zM384 384h256v-32h-256v32zM384 288h256v-32h-256v32z" />
    <glyph glyph-name="uniE612" unicode="&#xe612;" 
d="M294 46l41 239l-175 174l243 34l109 226l106 -222l246 -34l-175 -171l38 -243l-215 110zM512 200l174 -92l-31 194l140 137l-198 27l-85 171l-85 -174l-195 -28l140 -140l-34 -191z" />
    <glyph glyph-name="uniE613" unicode="&#xe613;" 
d="M518 666q0 -34 17.5 -52.5t46.5 -18.5q26 0 45 19.5t19 51.5q0 33 -17 51.5t-47 18.5q-19 0 -33.5 -8t-22.5 -24t-8 -38zM384 422v-38q6 10 15.5 25t31.5 41.5t36 29.5q6 0 7.5 -5t0.5 -9l-1 -5l-90 -339q-16 -47 24 -76q15 -9 34 -14q48 0 81 30.5t66 91.5v44l-51 -76
q-26 -26 -32 -20q-7 0 -7 20l90 339q9 33 -6.5 58.5t-44.5 30.5q-47 0 -105 -61q-30 -32 -49 -67z" />
    <glyph glyph-name="uniE614" unicode="&#xe614;" 
d="M685 832l-128 -230l-64 -128q-44 116 -186 358h-115l218 -378h-180v-83h212v-115h-212v-83h212v-167h102v167h205v83h-199v115h205v83h-179l224 378h-115z" />
    <glyph glyph-name="uniE615" unicode="&#xe615;" 
d="M442 122l-212 211q-58 59 -99.5 125t-59 125.5t-12 112t36.5 85.5q13 13 38 25l96 26q39 10 74 -4t54 -47l52 -115q7 -15 9.5 -31.5t0 -32.5t-10 -31t-19.5 -27q-9 -10 -9 -26t9 -25l212 -211q9 -10 25 -10t26 10q23 23 58.5 29.5t62.5 -4.5l116 -51q33 -19 46.5 -54
t4.5 -74q-39 -115 -51 -128q-68 -71 -198 -35t-250 157zM154 710q-20 -16 -21 -50.5t14.5 -77.5t50.5 -94t84 -98l204 -198q49 -47 101.5 -80t96.5 -48t80 -14t55 20q5 5 18.5 44.5t13.5 45.5q4 7 4.5 14.5t-2 14t-8.5 9.5q-109 52 -115 52q-13 6 -39 -7q-16 -14 -36 -21.5
t-40.5 -7.5t-40.5 7.5t-36 21.5l-205 192q-22 19 -30 46.5t0 55t30 45.5q17 17 6 39l-57 109q-10 9 -22.5 13t-22.5 -1q-1 0 -83 -32z" />
    <glyph glyph-name="uniE616" unicode="&#xe616;" 
d="M726 -48h-2h-14q-5 1 -13 2t-18 3t-22 4q-36 8 -88 34q-51 25 -115 72q-63 48 -134 128q-27 31 -50 60.5t-41 57.5q-35 56 -56 104q-22 48 -31 85q-10 39 -13 66q-2 28 0 45q1 14 1 16q1 4 2 7l2 6l2 6l2 6l3 5q8 15 20 24l116 104q18 15 39 14q8 -1 15 -3.5t13 -7.5
q11 -9 17 -21l80 -177q9 -19 3 -40q-6 -20 -21 -34l-43 -38q1 -6 4 -15t8 -19q8 -20 26.5 -49t53.5 -68q34 -39 61 -62q27 -22 45 -33q17 -10 25 -12l6 -2l51 45q22 17 47 15q15 -1 26 -6l5 -3l155 -105q11 -9 17.5 -19t8.5 -21v-1q1 -9 -1 -17.5t-6.5 -15.5t-11.5 -13
l-117 -104q-10 -9 -25 -16q-5 -1 -10 -2.5t-9.5 -2.5t-9.5 -2h-3zM162 625v-1q0 -2 -0.5 -6t-1.5 -8v-6v-6v-8q0 -5 0.5 -9.5t0.5 -9.5q0 -3 0.5 -6t1 -6.5t1.5 -7.5t1.5 -7.5t1.5 -7.5t1.5 -8.5t2 -8.5t2.5 -9q9 -35 29 -80.5t54.5 -99t87.5 -114.5q68 -78 129 -123
q62 -46 110 -69.5t81 -31t48 -8.5h10h5q4 1 9 2t9 3q10 4 16 10l118 104q9 8 8 19q-1 9 -12 17l-156 105q-2 2 -5 3t-9 1q-13 1 -25 -8l-49 -45q-2 -1 -3.5 -2t-4 -2t-4.5 -2q-7 -2 -11 -1l-13 3q-13 3 -34 16q-20 12 -49 35q-14 13 -30.5 29.5t-33.5 36.5q-19 20 -33 38.5
t-24 34t-17 28.5t-12 24q-2 7 -4.5 12.5t-4 11.5t-3 11t-1.5 10l-1 2v2q1 5 3 11q3 7 8 11l43 38q8 7 11 19q3 9 -1 18l-79 175l-9 11q-2 2 -4.5 3t-5.5 1q-8 0 -15 -6l-118 -105q-2 -1 -3.5 -2.5l-3.5 -3.5l-2 -4q-2 -2 -3 -4q-2 -5 -4 -9.5t-3 -9.5z" />
    <glyph glyph-name="uniE617" unicode="&#xe617;" 
d="M512 634q-94 0 -175.5 -48.5t-189.5 -150.5q-19 -19 -19 -51t19 -51q44 -47 79 -78t80.5 -61t96.5 -45t109 -15q55 0 107.5 17.5t100.5 50t82 61.5t75 70q19 19 19 48.5t-19 53.5q-30 32 -58 58t-65 53t-73 45.5t-80.5 30.5t-88.5 12v0zM512 218q-44 0 -82.5 22.5t-61 61
t-22.5 82.5q0 67 49.5 116.5t116.5 49.5t116.5 -49.5t49.5 -116.5t-49.5 -116.5t-116.5 -49.5v0zM512 480q-38 0 -67 -29t-29 -67t29 -67t67 -29t67 29t29 67t-29 67t-67 29v0z" />
    <glyph glyph-name="uniE618" unicode="&#xe618;" 
d="M116 710h792v-47h-792v47zM116 431h792v-47h-792v47zM116 151h792v-46h-792v46z" />
    <glyph glyph-name="uniE619" unicode="&#xe619;" 
d="M320 784v-800h416v800h-416zM575 48h-96v33h96v-33zM703 113h-352v639h352v-639z" />
    <glyph glyph-name="uniE61A" unicode="&#xe61a;" 
d="M512 10q-129 0 -221.5 89.5t-92.5 214.5q0 36 10.5 72.5t33 68.5t52.5 47q1 -4 2 -12t6.5 -30.5t13 -42.5t21.5 -42t31 -36q3 18 0 43t-1 58.5t4 68.5t15 72.5t32.5 69.5t56 61t85.5 46v-16q0 -53 0.5 -78.5t4 -65t11 -64t22 -53t36.5 -52.5q-3 22 1 45t15.5 47t37.5 44
t64 30q0 -46 11.5 -87.5t25.5 -67.5t25.5 -60t11.5 -66q0 -127 -92 -215.5t-222 -88.5v0zM512 74q50 0 87.5 35t37.5 83q0 13 -13 45q-10 19 -19 48q-10 -13 -10 -35l10 -84l-55 64q-15 19 -24 41t-12 41.5t-5 49.5q-26 -22 -34 -54.5t-8 -80.5v-29l-3 -48l-38 29
q-12 9 -19.5 20.5t-12.5 24.5q-7 -14 -7 -35q0 -48 37 -81.5t88 -33.5zM512 10z" />
    <glyph glyph-name="uniE61B" unicode="&#xe61b;" 
d="M517 794q-122 0 -206 -88q-80 -84 -81 -199q0 -45 29.5 -117t72 -143.5t84.5 -136.5t72 -105l29 -41q12 16 31 42.5t68.5 101.5t87.5 140.5t69 139.5t31 119q0 120 -82.5 203.5t-204.5 83.5zM527 384q-32 0 -59.5 15.5t-42.5 41t-15 56.5q0 47 34 82t83 35q25 0 47 -9
t37.5 -24.5t24.5 -37.5t9 -46q0 -49 -35 -81t-83 -32z" />
    <glyph glyph-name="uniE61C" unicode="&#xe61c;" 
d="M598 553q0 35 -24 59t-59 24q-23 0 -42 -11t-30 -30t-11 -42.5t11 -42.5t30 -29.5t42 -10.5t42 10.5t30 29.5t11 43zM479 44q3 -3 6 -5.5t6.5 -4.5t6.5 -3.5t6.5 -2.5t7.5 -1.5t9 -0.5q24 0 41 18q107 142 172 248q107 175 107 273q2 83 -42 157t-119 116.5t-159 39.5
q-84 0 -159.5 -43.5t-119.5 -116t-41 -153.5q0 -98 107 -273q22 -37 47 -73.5t43 -61t42 -58t39 -55.5zM337 742q87 77 184 77q54 0 99 -18.5t84 -58.5q39 -34 58 -81t19 -102q0 -26 -16 -69.5t-49 -108.5q-52 -98 -171 -266q-12 -12 -24 -12h-5q-1 0 -4 0.5t-5.5 2t-5 3.5
t-4.5 6q-73 100 -126.5 187t-82 152.5t-28.5 104.5q0 115 77 183zM906 55q-12 12 -60 36q-21 5 -41.5 8.5t-40.5 3.5v0q-15 0 -24 -18q0 -10 4.5 -17t13.5 -7h17q40 0 64.5 -11.5t30.5 -23.5q12 -12 12 -24q0 -14 -25.5 -30t-75.5 -29q-118 -30 -278 -30q-81 0 -151.5 8
t-126.5 22q-50 13 -75.5 29t-25.5 30q0 18 18 36q14 9 32.5 13t44.5 4h6h30q5 0 9 4t6 9t2 11q0 4 -1 6.5t-3.5 5t-5.5 4t-6.5 2t-6.5 0.5q-91 0 -131 -30q-35 -26 -35 -71q0 -42 41 -59q36 -18 89 -35q118 -30 290 -30q166 0 284 30q62 17 89 35q20 15 30.5 29t10.5 30
q6 7 8 14t1.5 12.5t-4 11.5t-7 11t-9.5 10z" />
    <glyph glyph-name="uniE61D" unicode="&#xe61d;" 
d="M848 -3h-672v368l278 272q29 29 61 29q33 -1 61 -29l269 -275v-365h3zM221 42h582v307l-256 262q-16 16 -32 16q-7 0 -14 -4t-11 -8l-4 -4v-3l-265 -262v-304zM957 397l-365 365q-1 1 -4 3.5t-12 8t-19 9.5t-24.5 5.5t-29.5 -1t-34 -12t-37 -26.5l-368 -349v-6
q0 -3 2.5 -12t8 -12.5t16 -6.5t27.5 5l333 326q2 3 6 6.5t17 11t26 10.5t31 -1t35 -17l349 -342l18 -4q31 1 24 39zM342 746h-144v-218l151 141zM547 310h67v-54h-67v54zM547 413v-55h67v55h-67zM410 310h67v-54h-67v54zM410 413v-55h67v55h-67z" />
    <glyph glyph-name="uniE61E" unicode="&#xe61e;" 
d="M787 550q-9 10 -18 10t-14 -10l-288 -300l-128 102q-19 19 -38 0t0 -38l141 -122l6 -6q6 -4 13 -2t13 8l307 326q9 5 10.5 16.5t-4.5 15.5zM787 550z" />
    <glyph glyph-name="uniE61F" unicode="&#xe61f;" 
d="M777 424l-207 207q-10 10 -23 10t-22 -10q-10 -10 -10 -23t10 -21l152 -152h-401q-9 0 -16 -4t-11 -11t-4 -16q0 -5 1.5 -10t4.5 -8.5t6.5 -6.5t8.5 -4.5t10 -1.5h403l-156 -158q-10 -10 -10 -23t10 -22q10 -10 23 -10t22 10l207 207q8 10 9 23q2 11 -7 24zM512 874
q99 0 190 -39t156.5 -104.5t104.5 -156.5t39 -190t-39 -190t-104.5 -156.5t-156.5 -104.5t-190 -39t-190 39t-156.5 104.5t-104.5 156.5t-39 190t39 190t104.5 156.5t156.5 104.5t190 39zM512 896q-139 0 -257 -68.5t-186.5 -186.5t-68.5 -257t68.5 -257t186.5 -186.5
t257 -68.5t257 68.5t186.5 186.5t68.5 257t-68.5 257t-186.5 186.5t-257 68.5z" />
    <glyph glyph-name="uniE620" unicode="&#xe620;" 
d="M512 896q-216 0 -364 -148t-148 -364t148 -364t364 -148t364 148t148 364q0 141 -69 259t-186.5 185.5t-256.5 67.5zM45 378q0 77 23 148.5t66 129t100 100t128.5 66t149.5 23.5q50 0 100 -12t94.5 -33t83.5 -52.5t68 -69.5l-224 -211l89 167h-109l-76 -192l-96 192h-116
l122 -224h-186v-71h205v-25l-51 -52h-160v-70h96l-160 -154q-147 170 -147 340zM518 -77q-188 0 -288 83l205 205h45v-160h96v160h205v51h-224v77h205v71h-96l236 230q42 -55 56.5 -109.5t14.5 -140.5q2 -47 -6 -93t-25.5 -87.5t-43 -79.5t-57 -69.5t-69 -57t-78.5 -43.5
t-86 -27.5t-90 -9.5z" />
    <glyph glyph-name="uniE621" unicode="&#xe621;" 
d="M124 648q2 15 3.5 31.5t2.5 28.5t3 27t4 27q0 20 6 32l-63 7v-26q0 -70 -20 -146q-19 -96 -57 -172q4 -1 8 -3t7 -4l8 -4q3 -2 7 -4l8 -6q4 -2 9 -5l10 -6q9 20 16.5 43t11.5 40.5t10.5 43.5t12.5 45h96v-254q-53 -21 -83.5 -32.5t-56.5 -20t-45 -11.5l26 -76l152 57
q3 0 4.5 1.5t2.5 3.5v1v-273q0 -83 -7 -121h102q-6 32 -6 121v299q18 10 31 18.5t18 12t14.5 8.5t25.5 12v-58q15 3 31.5 4.5t29.5 2t41 0.5h330v-306q0 -19 -9 -25t-42 -6q-16 0 -35.5 2t-43 6t-48.5 11q2 -7 4.5 -15t5 -14.5t5 -14t3.5 -16t1 -17.5q16 -2 30.5 -3.5
t29.5 -2t24 -0.5h24q71 0 96 16.5t25 59.5v325h26q28 0 41.5 -0.5t30.5 -2t29 -4.5v77q-17 -5 -38.5 -6t-62.5 -1h-26v128h26q76 0 108 -7v70l-14 -2q-7 -1 -12.5 -2t-14 -1t-14 -0.5t-16.5 -0.5h-16h-21h-185v152h153q76 0 102 -6v76q-26 -6 -102 -6h-153v45v23q0 8 1 21
t2 25t4 26h-70q6 -25 6 -95v-51h-127h-45q-14 0 -29.5 1.5t-27.5 4.5v-76q25 6 102 6h121v-146h-172q-83 0 -108 6v-76q32 6 108 6h324v-127h-324h-42q-14 0 -31 1.5t-29 4.5h7v77q-58 -38 -109 -64v223h26q57 0 95 -7v77q-17 -9 -36 -11t-59 -2h-26v153v19q0 6 0.5 16.5
t1 18.5t2 19t3.5 22h-96q7 -32 7 -95v-147h-83v-6zM455 209q89 -89 152 -184l58 44q-36 54 -71 92t-88 86z" />
    <glyph glyph-name="uniE622" unicode="&#xe622;" 
d="M538 51q-13 -6 -26 -6t-26 6l-469 470q-8 8 -11 18.5t0 21.5t11 19q13 13 25.5 13t25.5 -13l470 -469q6 -6 9 -14t3 -16t-3 -15.5t-9 -14.5v0zM1007 572q26 -26 0 -51l-469 -470q-13 -13 -26 -13t-26 13q-12 13 -12 26t12 25l470 470q13 13 29 13t22 -13v0zM1007 572z
" />
    <glyph glyph-name="uniE623" unicode="&#xe623;" 
d="M704 538l-38 38l-186 -186l-192 186l-32 -38l186 -186l-186 -186l32 -38l186 186l185 -186l39 38l-180 186zM704 538z" />
    <glyph glyph-name="uniE624" unicode="&#xe624;" horiz-adv-x="1026" 
d="M550 -51l455 422q14 15 14 35.5t-14 35.5q-22 21 -56 12q-13 -5 -21 -12l-416 -384l-416 384q-14 14 -38 14t-38.5 -14.5t-14.5 -35t14 -35.5l455 -422q12 -13 38 -13q10 0 22 4t16 9v0zM512 301q9 0 21.5 3.5t23.5 9.5l454 422q10 9 13 22t0 26t-13 22q-4 4 -9 7t-11 5
t-12 2.5t-12.5 0t-12 -2.5t-11 -5t-9.5 -7l-422 -384l-416 391q-19 14 -40.5 14t-36 -14.5t-14.5 -35t14 -35.5l448 -422q19 -19 45 -19v0zM512 301z" />
    <glyph glyph-name="uniE625" unicode="&#xe625;" 
d="M32 864v-323l112 109l176 -176l102 102l-176 176l112 112h-326zM602 192l176 -176l-112 -112h326v323l-112 -109l-176 176zM669 864l109 -112l-176 -176l102 -102l176 176l112 -112v326h-323zM144 118l-112 112v-326h323l-109 112l176 176l-102 102z" />
    <glyph glyph-name="uniE626" unicode="&#xe626;" 
d="M77 314l131 -148l-176 -185l86 -77l176 170l148 -128v364zM582 -54l148 128l176 -170l86 77l-173 185l131 148h-368v-368zM112 864l-77 -86l170 -180l-128 -147h365v368l-144 -131zM912 864l-186 -176l-144 131v-368h365l-128 147l170 180z" />
  </font>
</defs>
</svg>
